<?xml version="1.0" standalone="no"?>
<!DOCTYPE svg PUBLIC "-//W3C//DTD SVG 20010904//EN"
 "http://www.w3.org/TR/2001/REC-SVG-20010904/DTD/svg10.dtd">
<svg version="1.0" xmlns="http://www.w3.org/2000/svg"
 width="1024.000000pt" height="1024.000000pt" viewBox="0 0 1024.000000 1024.000000"
 preserveAspectRatio="xMidYMid meet">
<metadata>
Created by potrace 1.14, written by Peter Selinger 2001-2017
</metadata>
<g transform="translate(0.000000,1024.000000) scale(0.100000,-0.100000)"
fill="#000000" stroke="none">
<path d="M4695 7634 c-374 -57 -751 -187 -1047 -360 l-77 -45 33 -47 c18 -26
50 -75 70 -109 21 -35 41 -63 46 -63 5 0 28 13 52 29 194 130 594 280 888 333
145 26 453 35 602 19 289 -33 588 -123 863 -260 l176 -87 30 60 c17 34 47 83
66 110 43 60 51 51 -132 141 -327 160 -634 252 -954 284 -143 15 -506 12 -616
-5z"/>
<path d="M3170 7211 c-48 -15 -87 -40 -123 -80 -54 -60 -70 -98 -75 -181 -6
-97 19 -160 88 -224 61 -57 134 -81 229 -74 103 8 181 59 228 152 97 192 -43
418 -257 415 -36 0 -76 -4 -90 -8z"/>
<path d="M6634 7201 c-146 -66 -211 -249 -141 -393 46 -95 128 -148 238 -156
97 -7 159 17 229 87 64 64 80 106 80 202 0 116 -71 219 -177 259 -70 26 -173
27 -229 1z"/>
<path d="M4945 6993 c-44 -20 -204 -89 -355 -155 -407 -177 -487 -212 -596
-264 l-99 -46 135 -65 c74 -36 137 -67 139 -69 2 -2 -7 -20 -20 -41 -24 -38
-24 -41 -27 -366 l-3 -327 -29 -15 c-52 -27 -60 -49 -60 -170 0 -132 14 -165
86 -197 73 -32 154 -8 194 57 20 32 21 46 18 146 l-3 111 -42 38 -43 38 0 295
c0 280 1 296 20 320 41 51 56 47 321 -81 134 -66 255 -123 268 -127 19 -6 76
18 267 111 134 64 242 119 241 121 -2 2 -42 14 -88 28 l-84 24 -25 -23 c-39
-36 -64 -46 -121 -46 -127 0 -211 115 -165 225 63 150 293 135 335 -22 6 -24
18 -30 97 -53 49 -14 108 -35 131 -46 l42 -21 98 49 c54 27 164 80 246 118 81
38 147 73 147 79 0 6 -5 11 -10 11 -6 0 -97 39 -202 86 -307 137 -722 315
-730 313 -2 0 -39 -17 -83 -36z"/>
<path d="M7022 6566 c-29 -19 -77 -44 -107 -57 -30 -13 -55 -27 -55 -30 0 -3
19 -34 43 -70 97 -145 149 -263 213 -486 2 -9 24 -3 71 18 37 17 93 42 123 54
64 27 64 19 13 165 -56 159 -208 441 -238 440 -5 0 -34 -16 -63 -34z"/>
<path d="M2922 6538 c-16 -24 -36 -57 -45 -74 -15 -29 -15 -32 5 -51 30 -31
47 -107 40 -187 l-5 -69 24 6 c13 4 41 7 62 7 31 0 40 4 44 21 10 37 92 199
118 233 l24 32 -107 62 c-59 34 -113 62 -119 62 -7 0 -25 -19 -41 -42z"/>
<path d="M5869 6439 c-538 -268 -975 -482 -985 -482 -6 0 -123 56 -260 125
-137 69 -259 129 -271 132 -22 7 -23 5 -23 -47 l0 -55 63 -35 c34 -18 190 -96
346 -171 l285 -137 115 55 c64 30 181 86 261 124 163 78 494 235 798 380 179
85 225 112 193 112 -6 0 -65 25 -133 56 -68 30 -128 57 -134 60 -6 3 -121 -50
-255 -117z"/>
<path d="M5005 6518 c-52 -30 -57 -67 -16 -109 35 -34 59 -36 95 -8 36 28 36
80 0 108 -30 24 -50 26 -79 9z"/>
<path d="M3733 6463 c-35 -14 -63 -28 -63 -33 0 -7 380 -193 385 -188 2 2 5
26 6 55 l3 52 -135 70 -134 69 -62 -25z"/>
<path d="M2482 6430 c-49 -12 -106 -55 -133 -103 -29 -52 -33 -154 -7 -202 42
-75 115 -125 183 -125 38 0 46 -7 189 -151 82 -83 166 -162 187 -175 105 -66
268 5 305 132 14 49 14 59 0 107 -49 167 -255 213 -364 81 l-32 -38 -55 54
c-54 54 -55 54 -36 75 29 30 41 70 41 132 0 74 -28 131 -83 170 -65 47 -124
60 -195 43z"/>
<path d="M3530 5670 l0 -689 43 -11 c291 -74 817 -309 1037 -464 81 -58 76
-49 -32 57 -59 57 -149 134 -200 170 -85 62 -390 223 -545 289 l-63 26 -2 597
-3 596 -110 59 c-60 33 -113 59 -117 60 -5 0 -8 -310 -8 -690z"/>
<path d="M6418 6304 l-108 -54 0 -603 0 -602 -73 -29 c-282 -114 -586 -301
-764 -470 -83 -78 -95 -104 -25 -53 198 145 621 341 985 456 l122 39 0 121
c-2 949 -6 1251 -17 1250 -7 0 -61 -25 -120 -55z"/>
<path d="M5775 6001 c-99 -48 -309 -149 -467 -225 l-286 -138 -337 166 c-186
91 -341 166 -346 166 -5 0 -9 -10 -9 -22 0 -18 18 -33 78 -68 l77 -46 6 -114
c4 -63 10 -129 14 -147 6 -28 5 -31 -13 -26 -11 2 -24 14 -30 26 -10 21 -11
21 -11 -5 -2 -70 229 -167 479 -202 100 -14 114 -14 250 10 344 61 744 261
775 387 3 12 4 90 3 174 l-3 152 -180 -88z"/>
<path d="M7465 5916 c-72 -18 -107 -39 -153 -91 -55 -63 -76 -128 -70 -221 4
-64 10 -81 41 -128 60 -90 143 -136 247 -136 157 0 275 96 298 243 33 212
-156 386 -363 333z"/>
<path d="M2433 5600 c-89 -19 -160 -74 -204 -160 -35 -68 -33 -186 3 -256 58
-111 165 -170 288 -162 198 15 319 206 249 394 -51 136 -194 214 -336 184z"/>
<path d="M7245 5123 c-42 -248 -116 -497 -192 -653 -41 -83 -47 -92 -53 -70
-4 14 -11 24 -16 23 -5 0 -94 -24 -199 -53 -336 -91 -434 -117 -745 -199 -493
-130 -734 -191 -737 -187 -2 2 36 33 84 69 48 35 131 97 183 137 189 144 387
263 668 404 135 68 452 196 485 196 34 1 39 16 27 74 -7 36 -16 56 -23 53 -7
-2 -57 -19 -112 -37 -604 -195 -1111 -442 -1336 -648 -79 -73 -159 -174 -142
-179 28 -10 63 -46 82 -86 43 -88 15 -192 -66 -254 -103 -77 -237 -41 -298 80
-43 88 -25 171 53 238 l42 36 -53 59 c-98 111 -178 179 -315 267 -247 158
-538 293 -910 421 -215 74 -342 108 -343 93 0 -7 -4 -33 -8 -58 l-7 -46 80
-24 c122 -35 293 -101 408 -159 94 -47 148 -81 108 -68 -161 54 -617 174 -626
165 -4 -4 -17 -52 -29 -108 -16 -70 -19 -102 -11 -104 6 -3 72 -18 146 -35
377 -85 860 -231 1085 -328 121 -52 298 -143 319 -162 5 -5 -31 2 -80 16 -49
13 -258 69 -464 124 -206 55 -483 130 -615 165 -299 81 -510 135 -528 135 -8
0 -17 -10 -21 -22 -6 -21 -9 -19 -37 25 -69 110 -146 319 -171 465 -8 49 -17
72 -26 72 -8 0 -65 -19 -128 -42 -82 -29 -114 -46 -114 -58 0 -32 52 -215 90
-316 77 -205 232 -475 359 -624 141 -166 340 -340 541 -472 330 -217 673 -352
1080 -423 79 -14 146 -25 147 -25 2 0 3 -65 3 -145 l0 -144 -462 -3 c-459 -3
-463 -3 -513 -26 -81 -37 -141 -107 -165 -193 l-8 -27 81 -7 c107 -9 2633 -2
2642 7 14 14 -29 100 -74 148 -25 27 -68 59 -96 72 -50 23 -54 23 -518 26
l-468 3 3 146 3 147 109 17 c293 47 584 140 846 271 147 73 330 182 330 196 0
4 -18 14 -39 23 -49 21 -92 83 -98 143 l-5 44 -84 -54 c-105 -68 -350 -190
-474 -237 -162 -62 -376 -115 -527 -132 l-63 -7 0 117 c0 107 -2 117 -17 112
-153 -48 -265 -48 -385 -2 -17 7 -18 -3 -18 -110 l0 -118 -62 7 c-327 37 -720
183 -1016 378 -132 87 -216 154 -333 266 -88 83 -253 271 -245 279 5 5 302
-71 586 -150 448 -125 752 -203 875 -227 60 -12 61 -13 84 -62 29 -64 100
-133 171 -167 47 -22 68 -26 150 -26 82 0 103 4 151 26 71 33 126 88 162 160
l28 56 102 22 c183 41 633 155 977 249 212 58 417 112 424 112 3 0 6 -3 6 -8
0 -13 -101 -135 -183 -222 -42 -44 -77 -85 -77 -89 0 -5 14 -11 32 -15 46 -9
116 -88 125 -138 l6 -40 69 69 c38 37 106 113 151 168 176 218 292 427 377
684 48 144 116 419 122 495 l3 40 -115 42 c-63 24 -120 43 -126 44 -7 0 -19
-41 -29 -97z"/>
<path d="M4001 5123 c-7 -21 -15 -43 -17 -50 -3 -7 30 -28 83 -53 335 -157
639 -401 797 -640 49 -74 117 -206 135 -262 11 -32 17 -38 40 -38 25 0 30 7
55 73 83 214 261 436 487 609 91 70 360 228 451 265 38 16 68 34 68 41 0 7 -9
31 -20 53 -18 33 -25 39 -43 34 -54 -16 -411 -200 -497 -257 -214 -141 -376
-302 -475 -471 l-27 -48 -38 65 c-117 199 -304 368 -596 538 -78 45 -359 178
-377 178 -8 0 -19 -17 -26 -37z"/>
<path d="M6720 4690 c-288 -106 -514 -217 -790 -388 -88 -55 -153 -99 -115
-80 71 38 939 268 1009 268 32 0 30 23 -23 207 l-6 21 -75 -28z"/>
<path d="M4996 3965 c-41 -22 -55 -44 -56 -87 0 -53 44 -102 92 -102 49 0 85
27 99 72 15 51 -8 97 -56 118 -42 17 -43 17 -79 -1z"/>
</g>
</svg>
